/* XPM */
static char *_1c820284d9a4bb68ccaa3a12dd20e82XXxz7E8yBXdxnIbd[] = {
/* columns rows colors chars-per-pixel */
"32 32 209 2 ",
"   c None",
".  c #1A1B1D",
"X  c #161821",
"o  c #1A1E25",
"O  c #13192D",
"+  c #1A1F28",
"@  c #131B3C",
"#  c #131A34",
"$  c #1D2126",
"%  c #1D2128",
"&  c #182136",
"*  c #19243C",
"=  c #242526",
"-  c #242628",
";  c #282E37",
":  c #323234",
">  c #131D41",
",  c #111C49",
"<  c #081A5B",
"1  c #081A5B",
"2  c #162247",
"3  c #192540",
"4  c #1C2C43",
"5  c #16244D",
"6  c #1C2F4E",
"7  c #162653",
"8  c #1A2C52",
"9  c #172959",
"0  c #182B58",
"q  c #1B325A",
"w  c #223243",
"e  c #2A3442",
"r  c #24394E",
"t  c #21364D",
"y  c #353C42",
"u  c #203552",
"i  c #2A3A51",
"p  c #233A5B",
"a  c #091C63",
"s  c #091D6B",
"d  c #061A66",
"f  c #1A2F61",
"g  c #1D3765",
"h  c #09217B",
"j  c #3D454E",
"k  c #2B425B",
"l  c #364557",
"z  c #22416A",
"x  c #40474F",
"c  c #454C52",
"v  c #4B4D52",
"b  c #515C68",
"n  c #54616C",
"m  c #0A268D",
"M  c #092387",
"N  c #0A2691",
"B  c #0C2A95",
"V  c #082697",
"C  c #16399A",
"Z  c #15399C",
"A  c #092CA9",
"S  c #143CAA",
"D  c #1339A6",
"F  c #092EB3",
"G  c #0930B6",
"H  c #0A31B9",
"J  c #143FB8",
"K  c #3C6993",
"L  c #1843AF",
"P  c #1842B3",
"I  c #1541BC",
"U  c #1843BD",
"Y  c #1D4AB7",
"T  c #2557AC",
"R  c #265AB4",
"E  c #2B62B6",
"W  c #2C65BA",
"Q  c #3B7BBB",
"!  c #3874B3",
"~  c #336BAD",
"^  c #496BA6",
"/  c #5378A8",
"(  c #497BB7",
")  c #4D7BB3",
"_  c #0F3CC3",
"`  c #113EC3",
"'  c #1744C3",
"]  c #1343CC",
"[  c #1B4DCB",
"{  c #1B4AC0",
"}  c #1546D2",
"|  c #1648D4",
" . c #194CD5",
".. c #1447DF",
"X. c #164ADB",
"o. c #194DDB",
"O. c #1B53DD",
"+. c #2359C8",
"@. c #225DDF",
"#. c #2D6AC6",
"$. c #336DC0",
"%. c #3575C7",
"&. c #2868D9",
"*. c #2E71DA",
"=. c #377AD5",
"-. c #164CE3",
";. c #174EEA",
":. c #184EE9",
">. c #1952EE",
",. c #1E5AED",
"<. c #1A50E1",
"1. c #1B55F3",
"2. c #1E5BF1",
"3. c #225DEB",
"4. c #205EF4",
"5. c #2A6CEB",
"6. c #2767EE",
"7. c #2D74EC",
"8. c #2F76E7",
"9. c #317AE9",
"0. c #3271ED",
"q. c #2364F1",
"w. c #2A6FF1",
"e. c #2C73F3",
"r. c #2F79F4",
"t. c #327DF2",
"y. c #4F7EC9",
"u. c #587DC0",
"i. c #63819B",
"p. c #4381BD",
"a. c #5C88BA",
"s. c #6A8AA6",
"d. c #7D8EA3",
"f. c #779CBC",
"g. c #658BB8",
"h. c #3C81CD",
"j. c #3C84D3",
"k. c #3C88E6",
"l. c #3985EC",
"z. c #3C8AEB",
"x. c #3581EB",
"c. c #3583F4",
"v. c #3988F1",
"b. c #5992CF",
"n. c #4389D7",
"m. c #5989D8",
"M. c #4E93DC",
"N. c #5B9BDB",
"B. c #519ADE",
"V. c #5E87C6",
"C. c #6C90CB",
"Z. c #659BDC",
"A. c #6295DD",
"S. c #628ACA",
"D. c #74A5D8",
"F. c #66A1DB",
"G. c #418FE5",
"H. c #438DEB",
"J. c #4789E9",
"K. c #5B8EE7",
"L. c #4493E5",
"P. c #4B94E3",
"I. c #4C98E0",
"U. c #5395E2",
"Y. c #5D91E1",
"T. c #448CF1",
"R. c #528FF1",
"E. c #5190F1",
"W. c #649BED",
"Q. c #6A9FED",
"!. c #679AE4",
"~. c #679AF1",
"^. c #5FA1E6",
"/. c #69A5E9",
"(. c #7AAAEE",
"). c #79A8EA",
"_. c #7CB1E8",
"`. c #72A3F2",
"'. c #6DA1F4",
"]. c #8C9DAD",
"[. c #979DA7",
"{. c #819FBE",
"}. c #9EA2A9",
"|. c #91A8BD",
" X c #A4A6AD",
".X c #B1B4BC",
"XX c #9FB9D0",
"oX c #98B5CE",
"OX c #A0AFC3",
"+X c #AAB4C6",
"@X c #A3BCD3",
"#X c #84B5E5",
"$X c #8ABCE7",
"%X c #AEC1D6",
"&X c #B3C5D8",
"*X c #9DC3E7",
"=X c #AACAE6",
"-X c #B4D2EC",
";X c #B7D0E3",
":X c #BBCCE5",
">X c #C5D9EF",
",X c #C9D4EC",
"<X c #D1DEEF",
"1X c #C8DBF3",
"2X c #DCE5FB",
"3X c #D9E6F9",
"4X c #CBE1F5",
"5X c #E3E9F5",
"6X c #E9F2FF",
/* pixels */
"                                                                ",
"                                                                ",
"                                                                ",
"                                                                ",
"                                                                ",
"            + $ + + + . + - % % % % = . . = - - - -             ",
"          4 E ! ! $.^ e / u.) / ) ( g.K y ].OX+X+X X:           ",
"        3 E 9.L.T.t.=.p m.!.J.!.`.#X*XD.c @X-X3X6X5X X:         ",
"      3 J 3.4.6.H.j.z W P.W.~.K.Q.`.#X).i.n :X>X3X2X5X X:       ",
"    & P X.1.w.e.9.#.t n.L.T.K.T.Z.D.#X/.f.x %X1X4X3X2X3X[.:     ",
"  # Z :.>.w.e.6.*.z R 5.G.G.P.E.H.W.`.W.F.d.n =X1X-X-X3X<X X:   ",
"& C -.-.>.4.4.e.#.6 *.7.z.0.R.H.K.T.Q.!.'.C.j oX*X-X>X>X2X2X[.: ",
"C U o.o.} o.| [ g R @.8.=.=.n.n.m.n.J.Y.!.D.K b @X;X&X&X,X,X&X.X",
"2 2 5 7 2 7 5 2 o 6 0 8 6 t r r i r 6 i i l e = j c j j v x v v ",
"N B S ' J S U Z * T P ' { W Q Q %.V.%.Q ( S.i.i a.f.f.f.|.|..X+X",
"A _ } ;.:.} -.| 9 [ ;.1.5.k.x.v.L.v.L.I.Z./.p.l D.^.(.#X).=X,X@X",
"> B H ] } } X.:.D 9 ' >.2.9.x.7.5.L.L.I.Q.a.k p.B.I.!._.(.=X].j ",
"  @ N F ] } -.>.I 7 S | 1.r.7.7.t.z.z.L.B./ k A.Z.U._.(.#Xs.:   ",
"    > m H -.X.} | ' 9 I  .e.q.7.9.l.G.v.%.k V.Z.Y.Z./.U.) e     ",
"      @ N ..] } ;.| 0 U o.2.r.r.7.9.L.z.W i b.G.H.N.U.) ;       ",
"        @ B H ] | } S 0 &.,.5.e.q.8.x.+.p %.l.v.k.M.^ e         ",
"          @ N H -.] I 9 L }  .q.r.r.4.P q 3.v.G.z.! ;           ",
"            @ V F H ] I 9 I  .e.c.r.+.g +.3.l.l.! ;             ",
"              @ s A J I 7 S } ,.r.e.Y q <.O.8.E w               ",
"                @ M M A Z 7 I X.1.[ 0 +.>.,.E 4                 ",
"                  # a V h , S } :.D 9 [  .R 4                   ",
"                    O s N < , I S 5 P &.L &                     ",
"                      # d d @ M a , D T *                       ",
"                        O < < @ > M a &                         ",
"                          O < d d < O                           ",
"                            O 1 1 O                             ",
"                              . .                               "
};
