/* XPM */
static char *_c099dfcb19e42a1f21f47aff2b0434cTtziC4heriMEkKSg[] = {
/* columns rows colors chars-per-pixel */
"32 32 247 2 ",
"   c None",
".  c #231F22",
"X  c #241F22",
"o  c #232022",
"O  c #242022",
"+  c #252022",
"@  c #252122",
"#  c #242023",
"$  c #242123",
"%  c #252123",
"&  c #262122",
"*  c #262023",
"=  c #262123",
"-  c #262223",
";  c #262224",
":  c #262324",
">  c #272324",
",  c #262325",
"<  c #272325",
"1  c #262425",
"2  c #272425",
"3  c #272426",
"4  c #292222",
"5  c #282223",
"6  c #292223",
"7  c #292323",
"8  c #2A2323",
"9  c #2C2523",
"0  c #2D2523",
"q  c #282425",
"w  c #2B2524",
"e  c #282426",
"r  c #282526",
"t  c #2C2524",
"y  c #302623",
"u  c #322622",
"i  c #322722",
"p  c #342822",
"a  c #312925",
"s  c #332824",
"d  c #322925",
"f  c #342824",
"g  c #362A25",
"h  c #3A2B23",
"j  c #3C2B22",
"k  c #3C2C22",
"l  c #3D2C22",
"z  c #3D2C23",
"x  c #3E2C23",
"c  c #382B24",
"v  c #382C25",
"b  c #3B2D25",
"n  c #3D2E25",
"m  c #3D2F26",
"M  c #3F3026",
"N  c #412F25",
"B  c #463124",
"V  c #4B3222",
"C  c #483527",
"Z  c #4E3524",
"A  c #463629",
"S  c #4A3829",
"D  c #503522",
"F  c #543723",
"G  c #5B3A23",
"H  c #5D3A22",
"J  c #5D3B22",
"K  c #5E3C21",
"L  c #553C28",
"P  c #583C28",
"I  c #633E23",
"U  c #603D25",
"Y  c #603E25",
"T  c #5E412A",
"R  c #664327",
"E  c #674528",
"W  c #684429",
"Q  c #684529",
"!  c #6A4529",
"~  c #6A462A",
"^  c #6A472A",
"/  c #6D4729",
"(  c #67492E",
")  c #754521",
"_  c #744522",
"`  c #7A4821",
"'  c #7B4821",
"]  c #7A4922",
"[  c #7B4922",
"{  c #7B4923",
"}  c #7D4820",
"|  c #7C4821",
" . c #7D4821",
".. c #7C4921",
"X. c #7D4921",
"o. c #7E4820",
"O. c #7E4920",
"+. c #7F4920",
"@. c #7F4921",
"#. c #7C4922",
"$. c #7B4A24",
"%. c #7A4B27",
"&. c #7C4A24",
"*. c #7C4D26",
"=. c #724929",
"-. c #764B2A",
";. c #714C2B",
":. c #774C29",
">. c #774D29",
",. c #754C2A",
"<. c #764C2A",
"1. c #774C2A",
"2. c #734F2F",
"3. c #784C29",
"4. c #7D4F2A",
"5. c #7B512A",
"6. c #745030",
"7. c #755230",
"8. c #765230",
"9. c #765231",
"0. c #775636",
"q. c #785330",
"w. c #7D5730",
"e. c #7E5731",
"r. c #7A5534",
"t. c #834D23",
"y. c #824E23",
"u. c #834E23",
"i. c #844E23",
"p. c #814D24",
"a. c #834D24",
"s. c #834E24",
"d. c #834F24",
"f. c #834F25",
"g. c #844E24",
"h. c #854F24",
"j. c #82522A",
"k. c #855328",
"l. c #865328",
"z. c #85532A",
"x. c #86542A",
"c. c #86562C",
"v. c #8B5628",
"b. c #8B5629",
"n. c #89562B",
"m. c #8A572B",
"M. c #8C5628",
"N. c #8D5728",
"B. c #8D572A",
"V. c #8F572A",
"C. c #89562C",
"Z. c #8D5829",
"A. c #8E5829",
"S. c #8D582A",
"D. c #8E582A",
"F. c #8F582A",
"G. c #8E592A",
"H. c #8F592A",
"J. c #8E582B",
"K. c #8F582B",
"L. c #8A582D",
"P. c #8A582E",
"I. c #8E592C",
"U. c #8D592F",
"Y. c #8E582E",
"T. c #8E5A2F",
"R. c #8F5B2F",
"E. c #90582A",
"W. c #91582A",
"Q. c #91592A",
"!. c #905A2A",
"~. c #915A2B",
"^. c #925A2B",
"/. c #935B2B",
"(. c #945B2B",
"). c #945C2B",
"_. c #955C2B",
"`. c #915A2C",
"'. c #925A2C",
"]. c #925B2C",
"[. c #905B2F",
"{. c #945B2C",
"}. c #935C2C",
"|. c #865C33",
" X c #885930",
".X c #8D5A30",
"XX c #885D31",
"oX c #8B5B34",
"OX c #8E5E36",
"+X c #905C31",
"@X c #915C31",
"#X c #905E34",
"$X c #916132",
"%X c #916233",
"&X c #916334",
"*X c #9F6933",
"=X c #9A6834",
"-X c #9E6934",
";X c #9E6935",
":X c #9F6A36",
">X c #9F6A37",
",X c #91623B",
"<X c #9F6B38",
"1X c #9F6B39",
"2X c #9E6C3D",
"3X c #A06933",
"4X c #A06A33",
"5X c #A16A33",
"6X c #A26B33",
"7X c #A06A34",
"8X c #A16A34",
"9X c #A16B34",
"0X c #A16A35",
"qX c #A16B35",
"wX c #A26B34",
"eX c #A16C35",
"rX c #A36C34",
"tX c #A36C35",
"yX c #A36D35",
"uX c #A36D36",
"iX c #A36E37",
"pX c #A46D35",
"aX c #A46E35",
"sX c #A56E35",
"dX c #A46D36",
"fX c #A46E36",
"gX c #A56E36",
"hX c #A46E37",
"jX c #A56E37",
"kX c #A66F36",
"lX c #A76F36",
"zX c #A06C39",
"xX c #A26C38",
"cX c #A26E39",
"vX c #A36E39",
"bX c #A26E3A",
"nX c #A36F3A",
"mX c #A56E38",
"MX c #A46F3A",
"NX c #A36F3C",
"BX c #A06E3F",
"VX c #A26F3E",
"CX c #A77037",
"ZX c #A3703F",
"AX c #A06F41",
"SX c #A37242",
"DX c #A47548",
/* pixels */
"                            q # # q                             ",
"                      < < # # e 4 # # e e                       ",
"                    : . 4 u B w.( g p # # 2                     ",
"                # # g N F ) j.mX:XB.5.B j 0 o :                 ",
"                t v =.N.f.| N.mX9X`.K.t.` Z d e                 ",
"              # A +XH.E.a.O.N.kX9X`.K.i.O.d.w.t #               ",
"            : X S :X`.K.f.| H.eX4X{.E.t.O.N.|.0 #               ",
"          e : L |.4X^.N.a.| N.eX4X^.H.f.O.N.=Xq.M e             ",
"          # # ;.lX*X+X.Xa.| N.9X4X^.E.h.| b.mX9XC o :           ",
"          # p 5.kXeXOXI.a.| N.kX9X^.E.a.$.oXSXzXT 4 :           ",
"        q # V H.vX2X.XE.f.| H.kX4XE.E.a.$.oXDXvXc.g .           ",
"        # # Z I.VX:X`.E.f.O.b.eX9X}.E.a.&.C.NX9Xb.v #           ",
"        # h _ H.eX9XE.E.d.O.N.eX9XE.E.a.| b.9X4XE./ 4 #         ",
"      : X x ` H.kX9X}.E.f.O.N.kX4X`.E.a.| v.kX4X}.:.0 4         ",
"      : X x ` H.eX4XE.E.f.| N.eX9X}.E.d.} v.kX4X}.3.q #         ",
"      : X x ` H.kX*XE.E.f.| N.kX9X}.E.a.} v.kXeX}.3.4 #         ",
"      2 . x ` H.sX4X^.K.f.` H.kX9X`.K.a.O.N.eX9X{.3.9 X         ",
"      # o k ` H.sX4X^.K.f.O.N.eX9X`.E.a.O.d.&X&X`.:.q #         ",
"      2 . x ` H.sX4X^.K.f.| H.eXeXE.E.a.t.U d n x.:.< #         ",
"      : o x ` H.sX4XE.K.a.| N.kX4X).E.a.O.K X y j.-.4 :         ",
"      2 X x ` H.eX:XI.I.t.O.N.eX4X^.E.d.t.*.r.r.N.3.4 #         ",
"      2 X x ` H.mXSX#X.Xt.| H.eX4X^.E.a.O.b.SXxX{.3.q #         ",
"      : X x ` H.vXVX,X.Xt.` M.kX4X^.E.a.$.|.vX4X^.3.4 #         ",
"      : X j ` N.vXzX@XK.t.+.H.eX4X^.E.d.$.C.9X9X{.-.0 #         ",
"      < # x ` N.kX*XE.E.a.O.H.eX4X`.E.a.| b.9X9X^.3.q #         ",
"      < # x ` H.rX4XE.E.f.O.H.eX4XE.H.i.| N.tX9X`.:.4 #         ",
"      < o k ` H.kX4XE.K.t.O.N.eX9XE.K.i.| M.9X9X}.-.< 4         ",
"      : o x ` H.kX4X^.N.t.| I.vX9X{.K.i.} M.kX9X^.3.4 #         ",
"      2 # l +.H.kX4XE.K.t.t.N.CXkX`.E.a.+.N.kX9X^.-.9 #         ",
"      2 # p G R q.2./ ~ K K E q.2.~ ~ U K R 7.7./ P 4 #         ",
"        q # # # # 4 # # X # & & # # # # # 4 4 # # # 4 <         ",
"          : 4 # # # 4 # 4 # # # 4 # # 4 # # # # # 4             "
};
