/* XPM */
static char *bac2274979c74ca097068f06a6dfc746tiT7W87BfKn89Sar[] = {
/* columns rows colors chars-per-pixel */
"32 32 137 2 ",
"   c None",
".  c #1E2020",
"X  c #2C2D2D",
"o  c #342624",
"O  c #3E2723",
"+  c #332E2D",
"@  c #382D2C",
"#  c #34302F",
"$  c #3F302C",
"%  c #2E2F30",
"&  c #2E3132",
"*  c #343434",
"=  c #3C3433",
"-  c #323639",
";  c #3C373A",
":  c #34393C",
">  c #3A3839",
",  c #422521",
"<  c #4A2721",
"1  c #442822",
"2  c #4A2823",
"3  c #442D29",
"4  c #4E2C28",
"5  c #542D27",
"6  c #5D2A24",
"7  c #512F28",
"8  c #44332F",
"9  c #4D322D",
"0  c #54322B",
"q  c #5A3028",
"w  c #423533",
"e  c #4D3933",
"r  c #4C3B38",
"t  c #573730",
"y  c #5B3231",
"u  c #553A33",
"i  c #5D3C34",
"p  c #622D25",
"a  c #663127",
"s  c #683227",
"d  c #63322A",
"f  c #6A3429",
"g  c #62392E",
"h  c #6D382C",
"j  c #723B2E",
"k  c #633431",
"l  c #633C34",
"z  c #693C34",
"x  c #743E30",
"c  c #57403D",
"v  c #59403C",
"b  c #684037",
"n  c #644139",
"m  c #6E403B",
"M  c #764032",
"N  c #7B4234",
"B  c #72433B",
"V  c #7C463B",
"C  c #78483F",
"Z  c #363D43",
"A  c #3C3F42",
"S  c #433E41",
"D  c #374147",
"F  c #3A4146",
"G  c #39454D",
"H  c #444244",
"J  c #5A5A5A",
"K  c #705A54",
"L  c #735E5A",
"P  c #6E6F6F",
"I  c #7D7D7E",
"U  c #844437",
"Y  c #844639",
"T  c #85493C",
"R  c #8B4B3E",
"E  c #804E44",
"W  c #845347",
"Q  c #855449",
"!  c #815953",
"~  c #8C655F",
"^  c #8D6660",
"/  c #946E64",
"(  c #9A756D",
")  c #9F786F",
"_  c #957671",
"`  c #A4776D",
"'  c #A37C71",
"]  c #AD7F77",
"[  c #86807F",
"{  c #AE8179",
"}  c #8B8684",
"|  c #949494",
" . c gray62",
".. c #AA8780",
"X. c #AF8C84",
"o. c #B4938B",
"O. c #B9928A",
"+. c #A4A4A4",
"@. c #A7A8A7",
"#. c #A9A9A9",
"$. c #B4A1A6",
"%. c #BDA9A5",
"&. c #B6B6B6",
"*. c #BFBEBD",
"=. c #C2ADA7",
"-. c #C1ACA8",
";. c #C7B1AC",
":. c #C9B3AE",
">. c #DCB7B6",
",. c #DBB8B7",
"<. c #D7B7BA",
"1. c #DAB7B8",
"2. c #D7B9BB",
"3. c #E1B7B3",
"4. c #C4C3C3",
"5. c gray84",
"6. c #E2D8D6",
"7. c #E5DCDB",
"8. c #E8DEDD",
"9. c #EAE1DE",
"0. c #EAE2E0",
"q. c #EBE3E0",
"w. c #EAE1E0",
"e. c #ECE4E1",
"r. c #EAEBEA",
"t. c #EDEEEE",
"y. c #EFF0F0",
"u. c gray95",
"i. c #F6F7F7",
"p. c #F9F8F8",
"a. c #F8F9F9",
"s. c #FDFDFD",
"d. c #FFFDFC",
"f. c #FFFDFD",
"g. c #FDFEFE",
"h. c #FEFFFF",
"j. c white",
/* pixels */
"                        ,.,.1.                                  ",
"                      1.3.3.>.                                  ",
"                    3.        >.3.                              ",
"                  1.3.        1.3.                              ",
"                  ,.3.>.,.                    ,.>.,.            ",
"                    ,.>.,.                  2.3.3.1.            ",
"                                      - D   2.3.    1.>.        ",
"                                      w S   $.3.    >.,.        ",
"                              : % & w M t *                     ",
"                              r u e t M 0 &                     ",
"                          : * V R R T M u %                     ",
"                    D Z F v l N Y V N h 0 %                     ",
"                  D X X # B R N M M j a 9 X         ,.,.        ",
"                : c b b b N N N M M j a 6 4 w :                 ",
"                + l R R R N M j M x j a a 6 3 +                 ",
"            : r l z N N N h f h f a p 6 6 p d g w Z             ",
"            # c Q Q Q Q Q f p d a 6 d z m K Y W e *             ",
"        A = 5 _ 8.w.e.w.6.! p 6 p p ^ 7.8.0.8.8./ g = Z         ",
"        w 9 f { f.r.5.y.p.^ p s d h ( f.y.5.y.f.' j 9 >         ",
"    : w Y E T O.f.| X &.f.` U T Y Y { f.@.X  .f.' j M z = :     ",
"    - $ T E U O.f.#.J  .4.X.] ] ] ] o.4.| J &.f.` h j g + -     ",
"    - = T T x X.f.f.a.P % 4.f.f.f.f.*.X I a.f.f.( a s d + -     ",
"    G H n b j / :.:.;.K 3 } #.#.@.#.[ , L -.-.%.Q 6 7 9 A       ",
"        & $ M M N M N M j o . . . . o d s s d p 6 6 @ -         ",
"      ; 9 0 h h h f f a a < , , , , < p p p p p p p 0 9 A       ",
"    > # d f s s s p p p 6 p p s p 6 6 p 6 p p a a a s q + -     ",
"> # n B N N j M U N x x f h h j j h h h f h x z j h j h 0 0 + * ",
"- # V R R T M N R R W U x x x x x x N x x x N x x M M x s q % * ",
"* # b N N N M N N N N x N x N x x N x N x N x x h f f a p 5 X * ",
": * b h M j j M x x x x x x x x x x x x x x x x f a a p 6 4 * : ",
"    > $ d s f s s f s d a s d f f s s s s f p p 6 p 6 6 @ *     ",
"    D > z z z z z z z z z z z z z z z z z z k k y d k y = Z     "
};
