/* XPM */
static char *_9efa2ac5d8645c9cd92c2df5c5da455OhE2PnCvVjHET0b3[] = {
/* columns rows colors chars-per-pixel */
"32 32 230 2 ",
"   c None",
".  c black",
"X  c #010000",
"o  c #010100",
"O  c #010101",
"+  c #010200",
"@  c #010201",
"#  c #020201",
"$  c #010202",
"%  c #020203",
"&  c #020303",
"*  c gray1",
"=  c #030304",
"-  c #030305",
";  c #030404",
":  c #030405",
">  c #030406",
",  c #040505",
"<  c #040506",
"1  c #050607",
"2  c #050707",
"3  c #040608",
"4  c #050608",
"5  c #07090A",
"6  c #080A0C",
"7  c #080A0D",
"8  c #0A0C10",
"9  c #0A0D12",
"0  c #0B0E12",
"q  c #0C0F13",
"w  c #0D1015",
"e  c #0D1016",
"r  c #0D1116",
"t  c #0E1217",
"y  c #0D1118",
"u  c #0E1218",
"i  c #0F131B",
"p  c #11151C",
"a  c #11151D",
"s  c #13171F",
"d  c #121720",
"f  c #131822",
"g  c #141920",
"h  c #151A22",
"j  c #141A23",
"k  c #141A24",
"l  c #141B25",
"z  c #171C24",
"x  c #171D24",
"c  c #181E27",
"v  c #171E29",
"b  c #191E28",
"n  c #191F29",
"m  c #191F2A",
"M  c #181F2C",
"N  c #1A202A",
"B  c #1A202B",
"V  c #1B212D",
"C  c #1C232E",
"Z  c #1C232F",
"A  c #1D2430",
"S  c #1C2433",
"D  c #1E2532",
"F  c #1F2736",
"G  c #1F2835",
"H  c #202835",
"J  c #202836",
"K  c #242C3B",
"L  c #222C3E",
"P  c #242D3D",
"I  c #242E3F",
"U  c #262F3F",
"Y  c #242F41",
"T  c #272F40",
"R  c #242F42",
"E  c #263143",
"W  c #283141",
"Q  c #2A3345",
"!  c #2A3445",
"~  c #2A3446",
"^  c #2A364A",
"/  c #2C3749",
"(  c #2A364C",
")  c #2D384B",
"_  c #2B384E",
"`  c #303B4F",
"'  c #2E3B50",
"]  c #303B50",
"[  c #313C51",
"{  c #323E53",
"}  c #303D54",
"|  c #303D55",
" . c #313E56",
".. c #344056",
"X. c #344057",
"o. c #314058",
"O. c #324059",
"+. c #31405A",
"@. c #32405B",
"#. c #36435A",
"$. c #37435A",
"%. c #36445C",
"&. c #38465E",
"*. c #354460",
"=. c #364660",
"-. c #364661",
";. c #374865",
":. c #3A4860",
">. c #3B4861",
",. c #3B4A65",
"<. c #3C4A64",
"1. c #3E4C67",
"2. c #3E4D67",
"3. c #3F4D67",
"4. c #3A4B6A",
"5. c #3A4C6A",
"6. c #3B4C6A",
"7. c #3F4D68",
"8. c #3F4E68",
"9. c #3F506E",
"0. c #404F6A",
"q. c #41506C",
"w. c #42516D",
"e. c #43536F",
"r. c #445370",
"t. c #445470",
"y. c #445471",
"u. c #455572",
"i. c #455573",
"p. c #465673",
"a. c #415475",
"s. c #425577",
"d. c #465674",
"f. c #475775",
"g. c #425678",
"h. c #43577A",
"j. c #45587A",
"k. c #45597E",
"l. c #485978",
"z. c #495A7A",
"x. c #4A5C7C",
"c. c #4A5C7D",
"v. c #4B5E7F",
"b. c #4A6084",
"n. c #4E6285",
"m. c #4F6285",
"M. c #4F6286",
"N. c #4C6389",
"B. c #4D648C",
"V. c #4D648D",
"C. c #4E658E",
"Z. c #51658B",
"A. c #53688E",
"S. c #53698F",
"D. c #516890",
"F. c #546A91",
"G. c #556B92",
"H. c #556B93",
"J. c #516994",
"K. c #536C97",
"L. c #546D98",
"P. c #556E9B",
"I. c #57709E",
"U. c #59709A",
"Y. c #58729E",
"T. c #5973A1",
"R. c #5B74A0",
"E. c #5974A2",
"W. c #5974A3",
"Q. c #5C75A1",
"!. c #5D77A4",
"~. c #607CAD",
"^. c #627CAC",
"/. c #627DAD",
"(. c #637EAE",
"). c #637FB3",
"_. c #6581B3",
"`. c #6684B8",
"'. c #6786BB",
"]. c #6887BC",
"[. c #6A87BC",
"{. c #6988BF",
"}. c #6A89C0",
"|. c #6B8AC2",
" X c #6C8AC1",
".X c #6C8BC3",
"XX c #6C8BC4",
"oX c #708FC8",
"OX c #6F90CA",
"+X c #7090C8",
"@X c #7091CB",
"#X c #7293CD",
"$X c #7293CF",
"%X c #7294CF",
"&X c #7394CF",
"*X c #7395D2",
"=X c #7597D3",
"-X c #7598D5",
";X c #7698D5",
":X c #7699D6",
">X c #7799D7",
",X c #779AD8",
"<X c #789BD9",
"1X c #789BDA",
"2X c #799CDC",
"3X c #799DDD",
"4X c #7A9EDF",
"5X c #7B9FE0",
"6X c #7BA0E0",
"7X c #7BA0E1",
"8X c #7CA0E1",
"9X c #7CA0E2",
"0X c #7CA1E2",
"qX c #7DA1E3",
"wX c #7DA2E3",
"eX c #7DA2E4",
"rX c #7EA3E5",
"tX c #7EA3E6",
"yX c #7EA4E6",
"uX c #7FA4E6",
"iX c #7FA4E7",
"pX c #7FA5E7",
"aX c #7FA5E8",
"sX c #80A5E8",
"dX c #80A5E9",
"fX c #80A6E9",
"gX c #81A7EA",
"hX c #81A7EB",
"jX c #81A8EB",
"kX c #82A8EC",
/* pixels */
"                                                                ",
"                        5 3 3 2 3                               ",
"                    & 6 b.W.E.E.E. .& &                         ",
"                  z K 4.@XdXdXdXdXP.;.%.x                       ",
"                & D n.#X5XrXrXrXrXsXdX&Xf                       ",
"                2 F f.z.oXrXrXrXrXrXsX#XM                       ",
"              2 Q 1.p.p.n.[.dXaXrXrXrX4X`.^                     ",
"              & b K Q e.Q  .a.k.*XsXrXrXpX_ &                   ",
"              & & & 0 1.p & & 0 [.pXrXrXrXg.H                   ",
"              & & & s 7.i & & f |.pXrXrXrXrXB.*                 ",
"              & & B 1.0.s & S ].5XrXrXrXrXdXB.2                 ",
"              & V #.p.r.` E 9.qXrXrXrXrXpXdXB.&                 ",
"              = ] f.y.p.p.y.S.9XrXrXrXrXrXaXB.:                 ",
"              = ) f.p.y.p.e.Z.:X9XrXrXrXpXdXB.:                 ",
"              = [ f.p.p.p.y.p.n.=XrXrXrXrXdXB.&                 ",
"              & ] f.p.r.y.p.p.r.' ( ( *.:XkXB.&                 ",
"              D %.p.y.p.p.p.7.) @.@.@.*.N.@X).O.                ",
"            0 1.p.y.p.r.p.p. .r |.aXaX*Xf P.jX.Xi               ",
"            q 1.p.p.p.p.p.p...p '.9X9XOXv P.dX|.s               ",
"          c #.e.p.y.r.p.p.r.0. .E L L ( Y.*XpX4X!.E             ",
"        & v p.p.y.p.y.p.p.e.v.Q.s.5.5.h.<XpXrXrXqXY &           ",
"        & b p.r.p.y.p.y.p.e.A.qXaXaXdXpXrXpXrXrX9XL &           ",
"        & v y.p.y.p.y.p.p.p.H.qXpXqXqX6XqXrXrXrX6XY &           ",
"        & b p.y.p.y.p.y.p.Y.*XqXpXpX+XG.,XpXrXrXqXY &           ",
"          z I 0.y.p.y.p.e.~.pXrXrX.XH.c.:XrXaX=Xs.G             ",
"            0 1.p.p.p.y.e.^.sXqXrXY.e.c.:XpX*XD.r               ",
"            q &.e.p.r.0.e.^.sXsXrXQ.e.c.,X2XN.5                 ",
"              r ..f.>.s #.~.sXqXrXQ.r.c.,X4.z                   ",
"                b V B   b ,._.rXkXj.T z.U.F &                   ",
"                  &       V #.K.K.' z / / x                     ",
"                            : : 2     = 2                       ",
"                                                                "
};
