/* XPM */
static char *_393d2762ac1452e943d2ee55b078d1cKMo5Faf7b7G2yPnk[] = {
/* columns rows colors chars-per-pixel */
"32 32 91 1 ",
"  c None",
". c #25211F",
"X c #2B221F",
"o c #252220",
"O c #2D2422",
"+ c #2E2E2E",
"@ c #342825",
"# c #332E2D",
"$ c #392D2B",
"% c #3B312E",
"& c #2F2F30",
"* c #2F3132",
"= c #323334",
"- c #3C3533",
"; c #333639",
": c #35393D",
"> c #3A3A3B",
", c #422B29",
"< c #542A26",
"1 c #5D2A23",
"2 c #512E29",
"3 c #44312E",
"4 c #4C332D",
"5 c #53332C",
"6 c #5B342B",
"7 c #423432",
"8 c #4D3631",
"9 c #453835",
"0 c #4A3937",
"q c #43393A",
"w c #483E3F",
"e c #543730",
"r c #523934",
"t c #5A3B33",
"y c #533D38",
"u c #622D25",
"i c #612E28",
"p c #653127",
"a c #683226",
"s c #65322A",
"d c #6B352A",
"f c #64392E",
"g c #6D392D",
"h c #70372D",
"j c #713A2E",
"k c #673731",
"l c #683631",
"z c #623C33",
"x c #6B3D31",
"c c #753E31",
"v c #793F33",
"b c #5E423B",
"n c #644037",
"m c #764032",
"M c #7B4335",
"N c #75453B",
"B c #7B463A",
"V c #7E493C",
"C c #363D42",
"Z c #3F3C40",
"A c #433F42",
"S c #37424A",
"D c #39424A",
"F c #4F4141",
"G c #714A41",
"H c #804437",
"J c #814639",
"K c #844A3D",
"L c #8A4C3F",
"P c #8C4D40",
"I c #89574A",
"U c #965E53",
"Y c #9B6056",
"T c #AB918B",
"R c #BCA6A1",
"E c #BFAAA7",
"W c #CEBCBB",
"Q c #DCB7B5",
"! c #DBB8B7",
"~ c #D7B7B9",
"^ c #D9B7B8",
"/ c #D3B8BB",
"( c #DCBABA",
") c #E1B6B3",
"_ c #CFC1BE",
"` c #D1C2BE",
"' c #D1C4C1",
"] c #E7DDD9",
"[ c #EDE4E3",
"{ c #F0E7E6",
"} c white",
/* pixels */
"                     )   ))     ",
"                     )          ",
"                     )          ",
"        )))                     ",
"      ~/   /!          ~!!      ",
"      Q/   ~)         ~)!!      ",
"        Q  !)      :      !(    ",
"        )  !)      =>     ((    ",
"               :**0xr;  !)      ",
"               ---5j6#  ((      ",
"             =-BKVBMr=          ",
"             98BKKBMt+          ",
"         D**=NKMvMBBF>          ",
"         Fr8rBBvjMVKz0A         ",
"        +nPLPMvvmNVVNl3*        ",
"       wexJJHvvggxmNxl28A       ",
"      +4mmmmmMjsp1pssiup%=      ",
"    Dq5pdddspsapuup1dMvgftbD    ",
"    =3dassp11111upppmKMmjj%;    ",
"  :7NBJJJ5XXXpxmHJfXX@6mMmnf-;  ",
"  =-LLLLL4..oGIYYYGooo5mcvjx#=  ",
"  =7KKmmmmgfN_[[[{Eggfmmpuu<#=  ",
"  CqBNmmmmmmP]}}}}Wmmmjgu11<;C  ",
"    =4mmmmmmK]}}}}Wdssp111$;    ",
"    -4jjdhjdMR'__'Tauuuu11,-    ",
"  :#usau11111uissgdau111111<#;  ",
" -ytcvvcjjjjhaadggjvhpaassas48  ",
":%VPPPPPLLLLLMMLKMMLHmmmmmmmmz#;",
";%mHBHJJHHHMHmMHMjMHHmmmhdhds6+;",
":=xmcvcvmmmmmmjmjMmmjvmjdaauu2=:",
"  94sddddddddddddgddddaauuu1,7  ",
"  =%sapsaaaaaaaaaaaaaau1111<#=  "
};
