/* XPM */
static char *c8c372208fb24feddc08713077ad0238llBTwZEwcZaFyOQc[] = {
/* columns rows colors chars-per-pixel */
"32 32 53 1 ",
"  c #77503A",
". c #7C543E",
"X c #7F5740",
"o c #7F5841",
"O c #80573F",
"+ c #805740",
"@ c #845B43",
"# c #885F45",
"$ c #855F49",
"% c #8A6147",
"& c #876049",
"* c #8D6449",
"= c #8F684F",
"- c #91664B",
"; c #90674C",
": c #91684C",
"> c #93684C",
", c #91694E",
"< c #956A4C",
"1 c #946B4E",
"2 c #976C4F",
"3 c #986C4E",
"4 c #986D4F",
"5 c #936B50",
"6 c #956C50",
"7 c #956D51",
"8 c #976E51",
"9 c #9B6F50",
"0 c #9A6F51",
"q c #9B7152",
"w c #9C7050",
"e c #9C7152",
"r c #9B7254",
"t c #9B7255",
"y c #9B7355",
"u c #9E7354",
"i c #9F7554",
"p c #9D7557",
"a c #9E7658",
"s c #9D775A",
"d c #9E785C",
"f c #A07453",
"g c #A17553",
"h c #A27655",
"j c #A37856",
"k c #A47857",
"l c #A17758",
"z c #A37A5A",
"x c #A77C5A",
"c c #A67C5C",
"v c #A77E5E",
"b c #AA805E",
"n c #A98263",
/* pixels */
".%qe# @@5quX.*0q@ @@0rro.;0q..#X",
".#2q#,,@hhv8.%8q#8*#hhx,.*00#8&#",
"8*X@8jh@*h0%0%X#qziX-h4*0#.#eve.",
"hu#@2*#X#1%8lu@@1%@@%4%qhuo%1*@X",
"*@%%=&@20@X1*@%%*%@q8@.2%#%#*%@e",
".eb,qi%@1*r%ohv;qa@#5%q@@zx-i0@%",
"#*g9@@qi@%hh#-h4@#ra@*ha@,h1@%ia",
"@.-,.@izq#@#.@;;.%hh0@@#.@-*.*hl",
"i,.%8%#1%@%;a*.%8##4%@*-i#.*8@%0",
"ru#rjh@.#8%eeq#iheX.%0%gu8#zz0..",
"e,.@0-*r@1#80-@#0*;0@1@4q*+%e%,q",
"*Xu,##82O..%%@i*%#01O+.%%@h%-@e,",
".%0e#.@@0qi@.*ee@.#@errX.-qqOX@@",
".@,0#2,@qhk0X@80#e,@uhv1.#00%i%@",
"i,.@qjh@%j4*a%.@ajiX-h5%i%.@ahr.",
"he#@,%@@%-#8hq@@-##$%;#rh0@@-#@@",
"*@*%5*#0r&@5*&**5==ar$X5#$%*5*#u",
"Xub18u@@*=d=ovn5rr&&55a$@vx-u0+#",
"#%he@@uz@%ri&=h0@%dz@*uf@-h4X#lz",
"@.#*.@uhe%X@@o%-.@ul0#+@O+*#.*uh",
"a5.*e*@1##%8h=.,r%#=##-1l%X5u##,",
"eu@ehf@.#r#qie@qhrX.#0#gi,#hh0X.",
"0;@@0--h@,@1e%@@q*8u@-@40#.#q%0r",
"*Xi5#@1,O+.#%@h*#@0%.@.###v*#@0*",
".%0e#.@@raz#.*9h#.@#uhl@.10e@X@#",
".@,4#e0@8hk0@@24#u1@0hk1X#1;%h*X",
"l0.+uig@%k4%i,.@ahu+*z1*h*.#ahr.",
"a8#X*#+@%%#qr5@O%#.#%*@ie1@###X#",
"##,*0=#0a%O-#%;*8,%0i#+;#%*-8,#e",
"Xgv150@#%*l*@hv;11@#%;z%@xz-0,@%",
"##h4.#zz*%0e#%f0.%zz#%ee@*f1.*vz",
"..%;.@qie#.@X.%-.%eue@.@.+**.*qg"
};
