/* XPM */
static char *_9dd8d9bf6884d92c57f3566c51927c3ZvV47dcdzZaSmjri[] = {
/* columns rows colors chars-per-pixel */
"32 32 149 2 ",
"   c #66A861",
".  c #629B62",
"X  c #8DB364",
"o  c #A1C065",
"O  c #A0BF65",
"+  c #88B464",
"@  c #669864",
"#  c #63A362",
"$  c #66A961",
"%  c #5E9860",
"&  c #618F61",
"*  c #6A9C62",
"=  c #6F9E63",
"-  c #598D63",
";  c #548562",
":  c #65A561",
">  c #65A661",
",  c #59905E",
"<  c #517A59",
"1  c #526F53",
"2  c #578F61",
"3  c #62A061",
"4  c #68A962",
"5  c #6CAA64",
"6  c #66A963",
"7  c #5F8E5A",
"8  c #5A6F4A",
"9  c #65A663",
"0  c #66A862",
"q  c #65A564",
"w  c #5F9265",
"e  c #5B7F5A",
"r  c #629E68",
"t  c #66A762",
"y  c #66A962",
"u  c #67A861",
"i  c #69A962",
"p  c #69A964",
"a  c #67A962",
"s  c #67A961",
"d  c #6BAA63",
"f  c #6AA963",
"g  c #69AA63",
"h  c #65A761",
"j  c #62A261",
"k  c #61A162",
"l  c #63A462",
"z  c #64A561",
"x  c #5C9463",
"c  c #6D9D64",
"v  c #79A465",
"b  c #73A064",
"n  c #5F9863",
"m  c #64A461",
"M  c #5F9B63",
"N  c #73A264",
"B  c #A8C266",
"V  c #B2C666",
"C  c #AAC266",
"Z  c #7DAA64",
"A  c #5F9763",
"S  c #69A963",
"D  c #6BA964",
"F  c #5A9163",
"G  c #7BA964",
"H  c #9BBD64",
"J  c #9FBF65",
"K  c #95BB64",
"L  c #7CAB64",
"P  c #5B8B64",
"I  c #5D9860",
"U  c #5C8C61",
"Y  c #699C63",
"T  c #72A764",
"R  c #71A264",
"E  c #5E8E62",
"W  c #568A60",
"Q  c #5E9A60",
"!  c #57895F",
"~  c #516E52",
"^  c #53805E",
"/  c #5A915F",
"(  c #68A862",
")  c #66A45F",
"_  c #536545",
"`  c #61985B",
"'  c #67A862",
"]  c #609966",
"[  c #52604A",
"{  c #5D8C60",
"}  c #65A764",
"|  c #6DAB69",
" . c #6CAA68",
".. c #63A065",
"X. c #609861",
"o. c #629E64",
"O. c #66A763",
"+. c #63A561",
"@. c #6AA865",
"#. c #6AA966",
"$. c #69A965",
"%. c #69A865",
"&. c #69A864",
"*. c #68A864",
"=. c #6BA967",
"-. c #6BA966",
";. c #629E62",
":. c #6F9F64",
">. c #70A264",
",. c #629963",
"<. c #62A262",
"1. c #6AA866",
"2. c #6FAA67",
"3. c #6CA967",
"4. c #67A762",
"5. c #63A262",
"6. c #7CA764",
"7. c #AAC166",
"8. c #ADC366",
"9. c #8EB365",
"0. c #5E9564",
"q. c #65A662",
"w. c #619C62",
"e. c #8BB165",
"r. c #89B564",
"t. c #659763",
"y. c #5F9A60",
"u. c #669762",
"i. c #6B9A62",
"p. c #588B63",
"a. c #538463",
"s. c #66A761",
"d. c #5B945E",
"f. c #537E59",
"g. c #526E51",
"h. c #599161",
"j. c #62A161",
"k. c #6CAA65",
"l. c #60915C",
"z. c #596C4A",
"x. c #65A664",
"c. c #5F9565",
"v. c #5C825B",
"b. c #619E67",
"n. c #64A462",
"m. c #5E9863",
"M. c #5F9564",
"N. c #619B63",
"B. c white",
/* pixels */
"          . X o O + @ #                                         ",
"        $ % & * = - ; :                                         ",
"          > , < 1 2 3               4 5                         ",
"            6 7 8 9                   0                         ",
"            q w e r t                                           ",
"              0 y                                               ",
"                                                                ",
"                                                  u i           ",
"                                                  u p           ",
"          u                 a s                                 ",
"        i d                 f g                                 ",
"                                                    h j k l h   ",
"                                                  z x c v b n m ",
"                                                  M N B V C Z A ",
"                                          S D     F G H J K L P ",
"                                            0   $ I U Y T R E W ",
"d                                                   Q ! ~ ^ / > ",
"(                 u u                               $ ) _ ` s   ",
"                  i 5               ' '             9 ] [ { }   ",
"                u '                 |  .            t ..X.o.O.  ",
"      z +.h   ' @.#.$.%.&.&.@.*.&.#.=.-.#.&.$.          $ $     ",
"    ;.:.>.,.<.' 1.1.@.=.1.1.1.1.$.@.2.3.1.1.1.4.                ",
"  5.6.7.8.9.0.q.u     ' 0 '   0     ( ' 0   u                   ",
"  w.e.o o r.t.5.                                                ",
"$ y.{ u.i.p.a.z                                       u         ",
"  s.d.f.g.h.j.                                      ' k.'       ",
"    y l.z.q                                           0         ",
"    x.c.v.b.t                     i                             ",
"        y                         S                             ",
"                                                                ",
"                                                h               ",
"                                            n.m.M.N.n.          "
};
