/* XPM */
static char *ccdc2cb862484e75868db6a445917f7djEMAhWZwL2yKpHFE[] = {
/* columns rows colors chars-per-pixel */
"32 32 204 2 ",
"   c None",
".  c #020203",
"X  c #0C060B",
"o  c #060A0D",
"O  c #0B0A0C",
"+  c #070407",
"@  c #110E0D",
"#  c #1B0A0B",
"$  c #190607",
"%  c #19160D",
"&  c #040B1B",
"*  c #0E0F1D",
"=  c #070C12",
"-  c #1A0E14",
";  c #160F18",
":  c #0C1115",
">  c #0F1418",
",  c #131315",
"<  c #1B1412",
"1  c #151A1B",
"2  c #1A1A19",
"3  c #2B080E",
"4  c #380B0B",
"5  c #25100F",
"6  c #220E10",
"7  c #241310",
"8  c #201C1B",
"9  c #27171A",
"0  c #361817",
"q  c #292519",
"w  c #322217",
"e  c #383713",
"r  c #0B1322",
"t  c #06132B",
"y  c #0A152D",
"u  c #0C192D",
"i  c #191627",
"p  c #0D1430",
"a  c #0C1B3A",
"s  c #291122",
"d  c #321F22",
"f  c #251F3D",
"g  c #3C1F37",
"h  c #1D2428",
"j  c #17253C",
"k  c #2C2522",
"l  c #262626",
"z  c #352A29",
"x  c #3D3433",
"c  c #363938",
"v  c #3A3128",
"b  c #470F0C",
"n  c #4E120F",
"m  c #420C10",
"M  c #471717",
"N  c #541413",
"B  c #541C1C",
"V  c #591A19",
"C  c #631514",
"Z  c #681816",
"A  c #751C1B",
"S  c #7A1B1B",
"D  c #771B17",
"F  c #49221F",
"G  c #5C211A",
"H  c #433514",
"J  c #79241F",
"K  c #761E23",
"L  c #5C3631",
"P  c #483331",
"I  c #67212E",
"U  c #752A2D",
"Y  c #652330",
"T  c #7C3534",
"R  c #424324",
"E  c #48413D",
"W  c #51443D",
"Q  c #49563E",
"!  c #7C4E26",
"~  c #231F40",
"^  c #0E2546",
"/  c #0E264B",
"(  c #0D2B4D",
")  c #172546",
"_  c #11294D",
"`  c #102349",
"'  c #0C2650",
"]  c #122F5A",
"[  c #13315D",
"{  c #232C4B",
"}  c #272945",
"|  c #322E46",
" . c #143564",
".. c #163869",
"X. c #173B68",
"o. c #1F3F70",
"O. c #4D3853",
"+. c #344545",
"@. c #354A68",
"#. c #2D4776",
"$. c #384B78",
"%. c #2A436C",
"&. c #474244",
"*. c #4A4F4A",
"=. c #524641",
"-. c #584D49",
";. c #574A46",
":. c #5C524D",
">. c #575354",
",. c #6F444C",
"<. c #61544D",
"1. c #6A5E5B",
"2. c #675953",
"3. c #705C55",
"4. c #536555",
"5. c #74655E",
"6. c #657557",
"7. c #605171",
"8. c #6E6563",
"9. c #7A6C67",
"0. c #6A7466",
"q. c #7D716C",
"w. c #801D1C",
"e. c #89201C",
"r. c #9C241E",
"t. c #95231F",
"y. c #A3251E",
"u. c #862224",
"i. c #83252A",
"p. c #9B2421",
"a. c #962624",
"s. c #8E382E",
"d. c #933D35",
"f. c #9B3834",
"g. c #983B2F",
"h. c #A12521",
"j. c #A42C24",
"k. c #AA2A25",
"l. c #A52729",
"z. c #B22A25",
"x. c #B52C28",
"c. c #A2322A",
"v. c #B6322A",
"b. c #BE332C",
"n. c #B63933",
"m. c #C6332E",
"M. c #C4392A",
"N. c #CE3B32",
"B. c #C23231",
"V. c #DB3F33",
"C. c #924827",
"Z. c #B1692E",
"A. c #AD6932",
"S. c #B57639",
"D. c #C94638",
"F. c #C95738",
"G. c #D8592F",
"H. c #D67E37",
"J. c #D87E3A",
"K. c #CF7136",
"L. c #A9684E",
"P. c #8D5561",
"I. c #84736D",
"U. c #8B776E",
"Y. c #8B7C74",
"T. c #8E7E7B",
"R. c #927C75",
"E. c #C35140",
"W. c #D27540",
"Q. c #8F903A",
"!. c #A09238",
"~. c #85915B",
"^. c #B39D45",
"/. c #B8B74B",
"(. c #A3AF51",
"). c #93817A",
"_. c #E99447",
"`. c #C8B842",
"'. c #E9BB49",
"]. c #D4C64B",
"[. c #CAC849",
"{. c #E7D851",
"}. c #F1CE4B",
"|. c #9D8A84",
" X c #A8958D",
".X c #AC9A94",
"XX c #B39D94",
"oX c #B89F99",
"OX c #B6A197",
"+X c #BBA59C",
"@X c #B9A39A",
"#X c #BDA8A1",
"$X c #C2A79D",
"%X c #C3AA9F",
"&X c #C5ACA2",
"*X c #CAADA5",
"=X c #CEB3AA",
"-X c #CEB5AA",
";X c #D2B5AC",
":X c #D9BBAE",
">X c #D4BAAE",
",X c #D9BCB1",
"<X c #D9BBB1",
"1X c #E7CBBD",
/* pixels */
"                                            > o o O O h         ",
"                                          > + . . . . = h       ",
"                                      h 1 . . + . . . . : h     ",
"                                    > . . . @ E 2 . l P + o     ",
"                                  , . . . @ W |.<.% :.9.X o     ",
"                                > . . . @ =.OX$XOX<.5.I.+ O     ",
"                                : . . O <.*X;X&X;XXXXX).O :     ",
"                              > O . . -.OX,X+XW  X3.I.).,       ",
"                              k 9.8 . 1.*X:XOXz |.;.2.).1       ",
"                            &.I.@Xk . 1.*X:X*XR.$X|. X%Xq.c     ",
"                            P $X*X3.;.).=X:X:X,X:X<X<X,X.X2     ",
"                            *.|.*X.X&X;X:X:X>X>X:X<X;XXXq.l     ",
"                              &.Y.v U.*X,X,X,X>X&X;X;XI.h       ",
"                                l @ I.OX+X;X-X.XW Y.I.< :       ",
"                            , , + + q x v x x z O q 9 + O 1 1   ",
"                          L U n + p = r ) { { } * E q.T.8.2 8.>.",
"                        L f.c.n = t p ' %.#.#.$.i 8.>X1XOXk OX-.",
"                      B f.n.Z X & + a [  ...X.%.i 5.&X+XU.W q.-.",
"                0 0 N c.x.t.N - c r a ' ]  ...[ r 2.|.1.z q.c   ",
"      9 5 < 6 U E.E.E.M.x.C $ H /.+.t a ( ' ' ^ & 7 w q % q     ",
"  - 0 K l.k.k.m.D.N.b.y.l.n 3 C.[.*.j h = & & & X G A.[.!.%     ",
"B Z D p.z.z.z.z.x.x.y.y.C $ m j.Z.^.(.Q a ^ ^ ( ) O.L._.S.7     ",
"C h.h.y.r.p.h.t.t.r.r.C N N N C t.K.{./.4.[  . ...#.7.P.,.<     ",
"B w.p.r.y.h.h.y.r.r.a.4 S p.M 9 Y t.H.}.^.;.6.6.@.$.$.@.{       ",
"  M A S S S S e.y.p.S b a.A * ` } u.m.H.J.G.'.{.~.0.0.*.*       ",
"    - # # # # N u.S 4 D m.J i ` ~ I a.l.x.N.G.}.{.].[.Q.2       ",
"                7 3 $ w.B.D.T - ; ~ ~ I a.x.M.K.W.! e R         ",
"                    # S D.g.V w.u.s ` { | g M F F               ",
"                      M V 0 4 z.m.s.d y y u                     ",
"                          X m k.D.d.F                           ",
"                            0 U C.F                             ",
"                              6 9                               "
};
