/* XPM */
static char *_712a6e1107f451ef9c3e9896dd236c9G1fgXXZRWwV9nX8V[] = {
/* columns rows colors chars-per-pixel */
"32 32 81 1 ",
"  c #56575E",
". c #58595F",
"X c #5B5D62",
"o c #5F6065",
"O c #616266",
"+ c #64656A",
"@ c #67686C",
"# c #6A6B6E",
"$ c #6D6E71",
"% c #716E71",
"& c #6F7072",
"* c #727273",
"= c #767579",
"- c #78777A",
"; c #777879",
": c #7D7D7E",
"> c #817D7E",
", c #80807F",
"< c #7F7D81",
"1 c #827F82",
"2 c #828283",
"3 c #858485",
"4 c #858487",
"5 c #868586",
"6 c gray53",
"7 c #888282",
"8 c #8A8383",
"9 c #888384",
"0 c #888486",
"q c #878788",
"w c #878689",
"e c #89878A",
"r c #888888",
"t c #898889",
"y c #8B8A8B",
"u c #8E8889",
"i c #8F898A",
"p c #8B898C",
"a c #8C8B8C",
"s c #8D8B8E",
"d c #8E8D8D",
"f c #8F8E8E",
"g c #928C8D",
"h c #958E8D",
"j c #908D90",
"k c #918D91",
"l c #969192",
"z c #949293",
"x c #979494",
"c c #969495",
"v c #9C9493",
"b c #989697",
"n c #999697",
"m c #9F9797",
"M c #9F9897",
"N c #9D9A9B",
"B c #9E9B9C",
"V c #A09796",
"C c #A19897",
"Z c #A29B9A",
"A c #A39B9A",
"S c #A49C9B",
"D c #A19D9F",
"F c #A7A09F",
"G c #A9A09F",
"H c #A59FA1",
"J c #A8A0A0",
"K c #AAA2A1",
"L c #ABA3A2",
"P c #ACA4A3",
"I c #ACA5A4",
"U c #ADA5A4",
"Y c #ADA6A5",
"T c #AEA6A4",
"R c #AEA7A7",
"E c #AFA7A7",
"W c #AFA8A7",
"Q c #AFA8A8",
"! c #B0A7A6",
"~ c #B0A8A7",
"^ c #B1AAA9",
/* pixels */
"5bbbbc-2Nx3,,;2QQQ^Q~P8;rg6cnf&:",
"::,:,:&=3:,:2&<QRRRR!G>O;,,,2:+:",
"::,,22&@,,,,,&:WRPLRGR>o;,,,2:#f",
";::,:-O+,,,,,&;RPLRLPG>o;,,,:<@3",
"$$$#@X X+##%$#O#>gggu,%.&&#@@@X$",
"=+-jfjjjgg5O+#+X........$pq5q<=$",
":$H^RR^R^^VO+**$O+###OO+$q5251<=",
"=+0LPPLRGPCO+***O#*$*%*#&a:2:2*#",
";+1AWIIRPRvX+**$O#****&o$q<2::$o",
"#+gASJGAAAhoO@#OXO###@+XX<:=&+Xo",
"*#-22$@@OOO.O*;;===*o@=&&&++=$$$",
"52ta5Oo+OOO##D^~RIRM+:fte2*=z255",
":::::O#****&#CRPPRRA#=<:::==4:::",
"::,2:+$***&&OFPIRPPA+&<&;2=@2<:2",
"=::-*o#&%%%$o,GlALGC+$;#$2&+22::",
"@##*$@@oOO+O.X;O%;->@@#Xo$@o@&&#",
"p12Nccj:;:*.O#OOo#mHLDD--t5:o6pt",
";&<5,:2:,,#O****#:^R!PP>#>,:+a2<",
";*=0,,:,,:#O****#<RRP!P1O,:,+e2:",
":&#,:*=2,:#X#***@-!PP!P1+>,;+:2,",
"#++&+.X#+@ooO+OOX$ggu77*o&@+X+$$",
"2qqq;#*juhffuO%e2=#oOXXO$e65;X22",
":4252&2!~R!^A*@522::-;#t,544<of0",
"::2<:O:WPPRRV%O:2>>,2:#t2<:2:+<,",
"=,,,;+:PRIRRm%O-::::,>+;::2<:+*2",
";*&*$o=GAAvv7#X#O+#=;*O%;#$$#X&:",
"OOOo+&:#++o+O.o-==XX@-::<;;#.o+@",
"#*$@-f6$@o$@##*0ue+OcRPRIRI1o$**",
"$%*@<6::<&a:2:2:::o;RPP!TTG>o$**",
"$#$#<6,<<$s0::::<:+1~~PPGPR>.$**",
"####&5::;#t:;&@;:<o;PP~~PGG>X#&$",
"oooXo$+ooo&ooXXo$$X$78,,>>;#o+Oo"
};
